<?xml version="1.0" standalone="no"?>
<!DOCTYPE svg PUBLIC "-//W3C//DTD SVG 20010904//EN"
 "http://www.w3.org/TR/2001/REC-SVG-20010904/DTD/svg10.dtd">
<svg version="1.0" xmlns="http://www.w3.org/2000/svg"
 width="194.000000pt" height="193.000000pt" viewBox="0 0 194.000000 193.000000"
 preserveAspectRatio="xMidYMid meet">

<g transform="translate(0.000000,193.000000) scale(0.100000,-0.100000)"
fill="#000000" stroke="none">
<path d="M97 1833 c-4 -3 -7 -87 -7 -185 l0 -178 190 0 190 0 0 185 0 185
-183 0 c-101 0 -187 -3 -190 -7z m313 -178 l0 -135 -130 0 -130 0 0 135 0 135
130 0 130 0 0 -135z"/>
<path d="M204 1727 c-3 -8 -4 -45 -2 -83 l3 -69 78 -3 77 -3 0 86 0 85 -75 0
c-54 0 -77 -4 -81 -13z"/>
<path d="M522 1708 l3 -133 53 -3 52 -3 0 -75 c0 -72 -1 -74 -25 -74 -23 0
-25 3 -25 50 0 49 -1 50 -30 50 l-30 0 0 -136 0 -135 28 3 c21 2 28 9 30 31 3
27 6 28 50 25 43 -3 47 -5 47 -28 0 -18 -6 -26 -22 -28 -20 -3 -23 -9 -23 -53
0 -46 2 -49 25 -49 20 0 25 5 25 25 0 24 3 25 55 25 l55 0 0 -70 0 -71 40 42
c45 48 46 49 25 49 -9 0 -15 9 -15 25 0 20 -5 25 -25 25 -20 0 -25 5 -25 25 0
25 1 25 80 25 l80 0 0 30 c0 25 -4 30 -25 30 -23 0 -25 3 -25 50 0 47 2 50 25
50 20 0 25 -5 25 -25 0 -20 5 -25 25 -25 24 0 25 -3 25 -55 0 -52 1 -55 25
-55 23 0 25 -3 25 -50 0 -49 1 -50 30 -50 25 0 30 4 30 26 0 24 2 25 53 22
l52 -3 0 -103 0 -102 53 0 52 0 0 50 c0 46 2 50 25 50 23 0 24 -3 27 -77 3
-77 3 -78 31 -81 21 -3 27 -9 27 -28 0 -20 5 -24 31 -24 18 0 37 -7 44 -17 21
-29 35 -5 35 63 0 62 1 64 25 64 24 0 25 -3 25 -55 0 -52 1 -55 25 -55 23 0
25 -3 25 -50 0 -47 -2 -50 -25 -50 -21 0 -25 -5 -25 -30 0 -30 -1 -30 -55 -30
l-55 0 0 55 0 55 -50 0 c-46 0 -50 2 -50 24 0 19 -6 25 -27 28 -20 2 -29 9
-31 26 -3 16 -10 22 -28 22 -22 0 -24 -4 -24 -50 0 -46 -2 -50 -24 -50 -18 0
-26 -6 -28 -22 -2 -14 -12 -24 -28 -28 -18 -4 -26 -13 -28 -33 -3 -21 -9 -27
-28 -27 -22 0 -24 -3 -24 -55 l0 -55 56 0 c52 0 55 -1 52 -22 -3 -21 -9 -23
-85 -26 l-83 -3 0 -49 c0 -47 -2 -50 -25 -50 l-26 0 3 103 3 102 28 3 c27 3
28 6 25 49 l-3 46 -78 1 -77 1 0 -47 c0 -47 -1 -48 -30 -48 -27 0 -30 -3 -30
-30 0 -25 -4 -30 -25 -30 -21 0 -25 5 -25 30 0 25 -4 30 -25 30 -20 0 -25 5
-25 25 0 23 3 25 50 25 l50 0 0 43 c-1 29 -8 51 -25 72 -18 22 -25 25 -25 13
0 -11 -10 -18 -27 -20 -20 -2 -29 -9 -31 -25 -2 -14 -11 -23 -25 -25 -16 -2
-23 -11 -25 -30 -3 -22 -9 -28 -28 -28 -24 0 -25 2 -22 53 3 45 6 52 26 55 19
3 22 9 22 53 0 45 2 49 24 49 18 0 25 -6 28 -22 2 -15 11 -24 27 -26 22 -3 23
-1 17 28 -3 18 -6 43 -6 56 0 22 -4 24 -44 24 -41 0 -45 -2 -48 -27 -2 -20 -9
-28 -23 -28 -17 0 -20 8 -23 53 -3 47 -5 52 -27 52 -18 0 -24 6 -27 28 -2 21
-9 28 -31 30 -23 3 -28 8 -25 25 2 16 11 23 31 25 21 3 27 9 27 28 0 24 -2 24
-85 24 -84 0 -85 0 -85 -25 0 -20 -5 -25 -25 -25 -20 0 -25 5 -25 25 0 20 -5
25 -25 25 -20 0 -25 5 -25 25 0 25 1 25 80 25 l80 0 0 30 0 30 -79 0 -80 0 -3
53 c-3 48 -5 52 -28 52 -20 0 -26 -6 -28 -28 -3 -22 -8 -28 -25 -25 -13 2 -23
13 -27 28 -4 16 -14 26 -28 28 -19 3 -22 -1 -22 -27 0 -28 -3 -31 -30 -31 -25
0 -30 -4 -30 -24 0 -23 4 -25 53 -28 48 -3 52 -5 52 -28 0 -18 -6 -26 -22 -28
-20 -3 -23 -9 -23 -53 0 -45 2 -49 24 -49 18 0 25 6 28 23 3 19 10 22 56 25
l52 3 0 -105 0 -106 -55 0 c-54 0 -55 0 -55 -30 0 -25 4 -30 24 -30 18 0 26
-6 28 -22 2 -14 12 -24 28 -28 22 -5 25 -12 28 -53 3 -44 2 -47 -22 -47 -18 0
-25 6 -28 23 -2 16 -11 23 -31 25 -21 3 -27 9 -27 28 0 22 -3 24 -55 24 l-55
0 0 -105 0 -105 31 0 c27 0 30 -3 27 -27 -2 -22 -9 -29 -31 -31 -23 -3 -28 -8
-25 -25 2 -16 11 -23 31 -25 21 -3 27 -9 27 -28 0 -33 47 -35 52 -1 4 32 45
36 50 5 2 -17 11 -24 31 -26 23 -3 27 0 27 22 0 21 5 26 25 26 20 0 25 5 25
24 0 23 -5 25 -47 28 l-48 3 -3 53 c-3 50 -2 52 22 52 21 0 26 -5 26 -25 0
-23 3 -25 49 -25 47 0 50 -2 53 -27 2 -22 9 -29 31 -31 24 -3 27 0 27 27 0 26
4 31 25 31 21 0 25 -5 25 -30 0 -25 4 -30 25 -30 20 0 25 -5 25 -25 0 -25 -1
-25 -80 -25 -78 0 -80 -1 -80 -24 0 -23 4 -25 52 -28 46 -3 53 -6 58 -28 4
-15 14 -26 27 -28 20 -3 37 -35 25 -46 -3 -3 -16 -6 -29 -6 -18 0 -23 -5 -23
-25 0 -21 5 -25 30 -25 26 0 30 4 30 26 0 21 4 25 23 22 19 -3 22 -10 25 -50
l3 -47 -53 -3 c-50 -3 -53 -5 -56 -30 -3 -28 -2 -28 52 -28 53 0 56 -1 56 -25
0 -24 -3 -25 -56 -25 -54 0 -55 0 -52 -27 2 -20 10 -29 28 -33 16 -4 26 -14
28 -28 2 -16 10 -22 28 -22 19 0 24 5 24 25 0 23 3 25 49 25 44 0 50 -3 53
-23 3 -19 10 -22 56 -25 l52 -3 0 50 c0 54 9 66 40 56 13 -4 20 -15 20 -31 0
-19 5 -24 25 -24 20 0 25 -5 25 -26 0 -24 2 -25 53 -22 l52 3 5 50 5 50 48 3
47 3 0 -55 0 -56 55 0 c52 0 55 1 55 25 0 20 5 25 25 25 20 0 25 -5 25 -26 0
-22 4 -25 28 -22 19 2 28 9 30 25 3 17 -2 22 -25 25 -22 2 -28 8 -28 28 0 20
6 26 28 28 21 3 27 9 27 28 0 19 5 24 25 24 25 0 25 -1 25 -80 0 -78 1 -80 24
-80 23 0 25 4 28 53 l3 52 50 0 c47 0 50 -2 50 -25 0 -20 -6 -26 -28 -28 -23
-3 -28 -8 -25 -25 2 -16 11 -23 31 -25 23 -3 27 0 27 22 0 21 5 26 25 26 20 0
25 -5 25 -26 0 -22 4 -25 28 -22 27 3 27 4 30 81 3 74 4 77 27 77 20 0 25 -5
25 -24 0 -18 6 -25 23 -28 16 -2 23 -11 25 -31 3 -24 7 -28 30 -25 21 2 27 8
27 28 0 20 -6 26 -27 28 -22 3 -28 9 -28 28 0 20 5 24 31 24 27 0 30 3 27 27
-2 22 -8 28 -28 28 -20 0 -26 -6 -28 -28 -3 -21 -9 -27 -27 -27 -18 0 -24 6
-27 27 -2 20 -9 29 -25 31 -35 5 -32 52 2 52 20 0 25 5 25 25 0 20 5 25 25 25
20 0 25 -5 25 -25 0 -21 5 -25 30 -25 25 0 30 4 30 25 0 21 -5 25 -30 25 -25
0 -30 4 -30 24 0 19 6 25 28 28 l27 3 0 105 0 105 -27 3 c-22 3 -28 9 -28 28
0 20 5 24 31 24 l30 0 -3 53 c-3 48 -5 52 -30 55 -24 3 -28 0 -28 -22 0 -18
-6 -25 -22 -28 -14 -2 -24 -12 -28 -28 -5 -23 -11 -25 -55 -25 -44 0 -50 3
-53 22 -3 17 2 22 25 25 28 3 28 4 31 81 3 74 4 77 27 77 18 0 24 6 27 28 2
19 9 28 26 30 21 3 22 0 22 -53 0 -56 0 -56 28 -53 25 3 27 6 27 53 0 47 -2
50 -27 53 -22 3 -28 9 -28 28 0 20 5 24 31 24 27 0 30 3 27 28 -2 21 -9 28
-31 30 -23 3 -28 8 -25 25 2 16 11 23 31 25 21 3 27 9 27 28 0 22 -3 24 -55
24 -52 0 -55 -1 -55 -25 0 -20 -5 -25 -25 -25 -20 0 -25 5 -25 24 0 19 -6 25
-27 28 -20 2 -29 9 -31 26 -3 20 0 22 52 22 52 0 55 1 58 28 2 19 9 28 26 30
16 3 22 10 22 28 0 20 5 24 31 24 27 0 30 3 27 28 l-3 27 -132 3 -133 3 0 -31
c0 -25 -4 -30 -24 -30 -19 0 -25 6 -28 28 -3 25 -6 27 -53 27 -47 0 -50 -2
-53 -27 -3 -27 -6 -28 -58 -28 -51 0 -54 -1 -54 -25 0 -20 -5 -25 -25 -25 -20
0 -25 5 -25 25 0 20 -5 25 -25 25 -25 0 -25 1 -25 80 0 79 0 80 25 80 20 0 25
-5 25 -25 0 -20 5 -25 25 -25 23 0 25 3 25 50 0 47 2 50 25 50 23 0 25 -3 25
-50 0 -49 1 -50 30 -50 l30 0 0 80 0 80 -54 0 c-52 0 -55 -1 -58 -27 -2 -20
-9 -28 -23 -28 -14 0 -21 8 -23 28 -3 21 -9 27 -28 27 -19 0 -24 5 -24 25 0
25 1 25 81 25 l80 0 -3 28 -3 27 -132 3 -133 3 0 24 0 25 160 0 160 0 0 25 0
25 -187 -2 -188 -3 -3 -77 c-3 -75 -4 -78 -27 -78 -22 0 -24 -5 -27 -52 l-3
-53 -75 0 c-73 0 -75 1 -75 25 0 20 6 26 28 28 21 3 27 9 27 28 0 19 5 24 26
24 22 0 25 4 22 28 -2 19 -9 28 -25 30 -20 3 -23 9 -23 53 l0 49 -85 0 c-84 0
-85 0 -85 -25 0 -20 -5 -25 -25 -25 -20 0 -25 5 -25 25 0 25 -1 25 -80 25
l-81 0 3 -132z m266 -25 c-3 -102 -4 -108 -25 -111 -17 -3 -22 2 -25 25 -2 22
-9 29 -30 31 -26 3 -28 6 -28 52 0 46 2 49 28 52 21 2 28 9 30 31 3 21 9 27
28 27 l25 0 -3 -107z m-158 -3 c0 -47 -2 -50 -25 -50 -23 0 -25 3 -25 50 0 47
2 50 25 50 23 0 25 -3 25 -50z m268 28 c-2 -17 -11 -24 -30 -26 -24 -3 -28 0
-28 22 0 22 4 26 31 26 26 0 30 -3 27 -22z m262 -53 c0 -20 5 -25 24 -25 30 0
40 -13 31 -41 -6 -18 -14 -20 -78 -17 l-72 3 -3 53 -3 52 50 0 c48 0 51 -2 51
-25z m-485 -55 c0 -16 -6 -26 -18 -28 -19 -4 -32 20 -23 44 9 25 41 13 41 -16z
m55 -130 c0 -47 -2 -50 -25 -50 -23 0 -25 3 -25 50 0 47 2 50 25 50 23 0 25
-3 25 -50z m110 25 c0 -20 -5 -25 -25 -25 -20 0 -25 5 -25 25 0 20 5 25 25 25
20 0 25 -5 25 -25z m110 0 c0 -20 -5 -25 -25 -25 -20 0 -25 5 -25 25 0 20 5
25 25 25 20 0 25 -5 25 -25z m102 -27 l3 -53 53 -3 c47 -3 52 -5 52 -27 0 -18
6 -24 28 -27 19 -2 28 -9 30 -25 2 -14 11 -23 25 -25 16 -2 23 -11 25 -31 3
-27 5 -28 55 -25 48 3 52 5 55 31 3 27 4 27 78 27 l74 0 0 -30 c0 -25 -4 -30
-25 -30 -23 0 -25 -3 -25 -50 0 -49 1 -50 30 -50 25 0 30 4 30 25 0 23 3 25
50 25 l50 0 0 -79 c0 -79 0 -80 28 -83 19 -2 28 -9 30 -25 3 -20 -1 -23 -27
-23 -26 0 -31 4 -31 25 0 20 -5 25 -24 25 -19 0 -25 6 -28 28 -2 21 -8 27 -28
27 -20 0 -26 -6 -28 -27 -3 -22 -9 -28 -28 -28 -19 0 -24 -5 -24 -25 0 -20 -5
-25 -24 -25 -23 0 -25 4 -28 53 -3 45 -6 52 -25 55 -35 5 -32 52 2 52 20 0 25
5 25 25 0 24 -3 25 -55 25 -52 0 -55 -1 -55 -25 0 -20 -5 -25 -25 -25 -20 0
-25 5 -25 25 0 20 -5 25 -25 25 -20 0 -25 5 -25 24 0 19 -6 25 -27 28 -22 2
-29 9 -31 31 -3 21 -9 27 -27 27 -18 0 -24 -6 -27 -27 -2 -20 -9 -29 -25 -31
-22 -3 -23 0 -23 52 0 56 0 56 -30 56 l-30 0 0 73 c0 78 3 87 31 87 15 0 19
-10 21 -52z m108 27 c0 -20 -5 -25 -25 -25 -20 0 -25 5 -25 25 0 20 5 25 25
25 20 0 25 -5 25 -25z m-370 -110 c0 -20 5 -25 25 -25 20 0 25 -5 25 -25 0
-20 -5 -25 -25 -25 -20 0 -25 5 -25 25 0 20 -5 25 -25 25 -20 0 -25 5 -25 25
0 20 5 25 25 25 20 0 25 -5 25 -25z m-485 -105 c0 -18 -6 -26 -22 -28 -20 -3
-23 1 -23 28 0 27 3 31 23 28 16 -2 22 -10 22 -28z m480 0 c0 -18 -6 -26 -22
-28 -20 -3 -23 1 -23 28 0 27 3 31 23 28 16 -2 22 -10 22 -28z m853 -3 c3 -23
0 -27 -22 -27 -21 0 -26 5 -26 23 0 13 3 27 7 31 15 14 38 0 41 -27z m-1170
-154 c3 -19 -1 -23 -22 -23 -21 0 -26 5 -26 26 0 21 4 25 23 22 14 -2 23 -11
25 -25z m52 -58 c0 -20 -5 -25 -25 -25 -20 0 -25 -5 -25 -25 0 -23 3 -25 49
-25 55 0 63 -6 54 -38 -3 -15 -13 -22 -29 -22 -19 0 -24 -5 -24 -25 0 -23 -3
-25 -50 -25 -47 0 -50 2 -50 25 0 20 5 25 25 25 21 0 25 5 25 30 0 25 -4 30
-25 30 -20 0 -25 5 -25 25 0 20 5 25 25 25 20 0 25 5 25 25 0 20 5 25 25 25
20 0 25 -5 25 -25z m1280 0 c0 -20 -5 -25 -25 -25 -20 0 -25 5 -25 25 0 20 5
25 25 25 20 0 25 -5 25 -25z m-1440 -106 c0 -26 -3 -30 -22 -27 -17 2 -24 11
-26 31 -3 23 0 27 22 27 22 0 26 -4 26 -31z m270 -79 c0 -47 -2 -50 -25 -50
-20 0 -25 -5 -25 -25 0 -24 -2 -24 -82 -27 -82 -3 -83 -3 -86 -30 -3 -22 -9
-28 -28 -28 -23 0 -24 2 -24 80 0 79 0 80 25 80 20 0 25 -5 25 -25 0 -24 3
-25 54 -25 49 0 55 2 58 23 2 16 11 23 31 25 21 3 27 9 27 28 0 19 5 24 25 24
23 0 25 -3 25 -50z m-430 -80 c4 -16 14 -26 28 -28 16 -2 22 -10 22 -28 0 -19
-5 -24 -25 -24 -20 0 -25 -5 -25 -25 0 -20 -5 -25 -25 -25 -24 0 -25 2 -25 73
0 41 3 77 7 81 14 13 37 0 43 -24z m1170 6 c0 -18 -6 -25 -22 -28 -17 -2 -24
-11 -26 -30 -3 -22 -9 -28 -28 -28 -19 0 -24 -5 -24 -25 0 -24 -3 -25 -55 -25
-52 0 -55 1 -55 25 0 21 5 25 30 25 25 0 30 4 30 25 0 18 5 25 20 25 11 0 23
7 25 15 3 8 7 22 10 30 3 10 18 15 50 15 41 0 45 -2 45 -24z m-900 -111 c0
-20 -5 -25 -25 -25 -20 0 -25 5 -25 25 0 20 5 25 25 25 20 0 25 -5 25 -25z
m158 -27 c-3 -46 -6 -53 -25 -56 -22 -3 -23 0 -23 52 0 53 1 56 26 56 24 0 25
-2 22 -52z m372 27 c0 -20 -5 -25 -25 -25 -20 0 -25 5 -25 25 0 20 5 25 25 25
20 0 25 -5 25 -25z m480 0 c0 -23 -3 -25 -50 -25 -47 0 -50 2 -50 25 0 23 3
25 50 25 47 0 50 -2 50 -25z m160 -55 c0 -79 0 -80 -25 -80 -20 0 -25 5 -25
25 0 20 -5 25 -25 25 -21 0 -25 5 -25 30 0 25 4 30 25 30 20 0 25 5 25 25 0
20 5 25 25 25 25 0 25 -1 25 -80z m-910 0 c0 -23 -4 -30 -20 -30 -23 0 -35 22
-26 45 3 8 15 15 26 15 16 0 20 -7 20 -30z m640 0 c0 -23 -4 -30 -20 -30 -11
0 -23 7 -26 15 -9 23 3 45 26 45 16 0 20 -7 20 -30z m430 -75 l0 -105 -25 0
c-24 0 -25 2 -25 74 0 70 -1 75 -22 78 -17 2 -24 11 -26 31 -3 26 -2 27 47 27
l51 0 0 -105z m-1600 20 c0 -20 -5 -25 -25 -25 -20 0 -25 5 -25 25 0 20 5 25
25 25 20 0 25 -5 25 -25z m480 0 c0 -20 5 -25 24 -25 23 0 25 -4 28 -52 3 -49
5 -53 31 -56 27 -3 27 -2 27 52 0 53 1 56 25 56 20 0 25 5 25 25 0 24 3 25 55
25 52 0 55 -1 55 -25 0 -24 -3 -25 -55 -25 l-55 0 0 -80 c0 -79 0 -80 -25 -80
-20 0 -25 -5 -25 -25 0 -23 3 -24 78 -27 l77 -3 3 -53 c3 -47 5 -52 27 -52 22
0 24 5 27 53 3 45 6 52 25 55 17 3 22 -2 25 -25 2 -22 9 -29 31 -31 24 -3 27
0 27 27 0 26 -4 31 -25 31 -23 0 -25 3 -25 50 0 47 2 50 25 50 20 0 25 -5 25
-25 0 -20 5 -25 25 -25 20 0 25 5 25 26 0 22 4 25 28 22 25 -3 27 -6 27 -48 0
-42 -2 -45 -27 -48 -27 -3 -28 -6 -28 -58 0 -51 1 -54 25 -54 20 0 25 -5 25
-25 0 -20 -5 -25 -25 -25 -20 0 -25 5 -25 25 0 24 -3 25 -55 25 -52 0 -55 -2
-55 -24 0 -18 -6 -26 -22 -28 -14 -2 -24 -12 -28 -28 -4 -16 -13 -25 -25 -25
-17 0 -20 8 -23 52 l-3 53 -79 0 -79 0 -3 -53 c-3 -45 -6 -52 -25 -55 -22 -3
-23 0 -23 52 0 53 1 56 25 56 24 0 25 3 25 55 0 52 -2 55 -24 55 -18 0 -26 6
-28 22 -2 14 -12 24 -28 28 -22 5 -25 12 -28 58 l-3 52 -50 0 c-46 0 -49 2
-49 25 0 20 5 25 25 25 20 0 25 5 25 25 0 20 5 25 25 25 20 0 25 -5 25 -25z
m640 0 c0 -20 -5 -25 -25 -25 -20 0 -25 5 -25 25 0 20 5 25 25 25 20 0 25 -5
25 -25z m160 0 c0 -20 -5 -25 -25 -25 -20 0 -25 5 -25 25 0 20 5 25 25 25 20
0 25 -5 25 -25z m-110 -50 c0 -18 -5 -25 -19 -25 -11 0 -23 5 -26 10 -11 18 3
40 25 40 15 0 20 -7 20 -25z m-422 -52 c3 -19 -1 -23 -22 -23 -21 0 -26 5 -26
26 0 21 4 25 23 22 14 -2 23 -11 25 -25z m640 -55 l3 -78 -81 0 -80 0 0 73 c0
41 3 77 7 81 4 4 39 5 78 4 l70 -3 3 -77z m-588 -28 c0 -47 -2 -50 -25 -50
-23 0 -25 3 -25 50 0 47 2 50 25 50 23 0 25 -3 25 -50z m370 -55 l0 -105 -25
0 c-20 0 -25 -5 -25 -25 0 -20 -5 -25 -25 -25 -20 0 -25 5 -25 25 0 20 -5 25
-25 25 -24 0 -25 3 -25 55 0 52 1 55 25 55 23 0 25 3 25 50 l0 50 50 0 50 0 0
-105z m325 55 c0 -42 -2 -45 -27 -48 -27 -3 -28 -2 -28 48 0 50 1 51 28 48 25
-3 27 -6 27 -48z m-965 -105 l0 -55 -50 0 c-47 0 -50 2 -50 25 0 20 5 25 25
25 20 0 25 5 25 23 0 28 7 37 32 37 15 0 18 -8 18 -55z m860 -30 c0 -20 5 -25
25 -25 20 0 25 -5 25 -25 0 -20 -5 -25 -25 -25 -20 0 -25 5 -25 25 0 20 -5 25
-25 25 -20 0 -25 5 -25 25 0 20 5 25 25 25 20 0 25 -5 25 -25z"/>
<path d="M1487 454 c-4 -4 -7 -18 -7 -31 0 -19 5 -23 31 -23 27 0 30 3 27 28
-3 26 -34 43 -51 26z"/>
<path d="M1270 271 c0 -27 4 -31 26 -31 22 0 25 4 22 28 -2 19 -9 28 -25 30
-20 3 -23 -1 -23 -27z"/>
<path d="M950 1815 c0 -20 5 -25 25 -25 20 0 25 5 25 25 0 20 -5 25 -25 25
-20 0 -25 -5 -25 -25z"/>
<path d="M1480 1655 l0 -185 190 0 190 0 0 185 0 185 -190 0 -190 0 0 -185z
m320 0 l0 -135 -130 0 -130 0 0 135 0 135 130 0 130 0 0 -135z"/>
<path d="M1590 1655 l0 -85 80 0 81 0 -3 83 -3 82 -77 3 -78 3 0 -86z"/>
<path d="M367 1413 c-4 -3 -7 -17 -7 -30 0 -21 4 -23 55 -23 54 0 55 0 55 30
0 29 -1 30 -48 30 -27 0 -52 -3 -55 -7z"/>
<path d="M900 1177 c0 -21 3 -23 47 -17 35 4 49 10 51 23 3 14 -4 17 -47 17
-47 0 -51 -2 -51 -23z"/>
<path d="M207 1094 c-4 -4 -7 -18 -7 -31 0 -19 5 -23 31 -23 27 0 30 3 27 28
-3 26 -34 43 -51 26z"/>
<path d="M687 1094 c-4 -4 -7 -18 -7 -31 0 -19 5 -23 31 -23 27 0 30 3 27 28
-3 26 -34 43 -51 26z"/>
<path d="M1140 1093 c0 -5 5 -15 10 -23 8 -12 10 -11 10 8 0 12 -4 22 -10 22
-5 0 -10 -3 -10 -7z"/>
<path d="M94 1026 c-3 -8 -4 -31 -2 -52 3 -34 6 -39 31 -42 27 -3 27 -2 27 52
0 53 -1 56 -25 56 -14 0 -28 -6 -31 -14z"/>
<path d="M1176 914 c-10 -27 -7 -34 19 -34 20 0 25 5 25 25 0 29 -34 36 -44 9z"/>
<path d="M95 447 c-3 -7 -4 -91 -3 -187 l3 -175 188 -3 187 -2 -2 187 -3 188
-183 3 c-143 2 -184 0 -187 -11z m315 -182 l0 -136 -128 3 -127 3 -3 133 -3
132 131 0 130 0 0 -135z"/>
<path d="M200 270 l0 -80 80 0 80 0 0 80 0 80 -80 0 -80 0 0 -80z"/>
</g>
</svg>
